%TF.GenerationSoftware,KiCad,Pcbnew,9.0.0-rc1*%
%TF.CreationDate,2025-03-07T01:01:45+01:00*%
%TF.ProjectId,nRF24-breakout,6e524632-342d-4627-9265-616b6f75742e,rev?*%
%TF.SameCoordinates,Original*%
%TF.FileFunction,Copper,L1,Top*%
%TF.FilePolarity,Positive*%
%FSLAX46Y46*%
G04 Gerber Fmt 4.6, Leading zero omitted, Abs format (unit mm)*
G04 Created by KiCad (PCBNEW 9.0.0-rc1) date 2025-03-07 01:01:45*
%MOMM*%
%LPD*%
G01*
G04 APERTURE LIST*
%TA.AperFunction,ComponentPad*%
%ADD10R,2.000000X2.000000*%
%TD*%
%TA.AperFunction,ComponentPad*%
%ADD11C,2.000000*%
%TD*%
%TA.AperFunction,ComponentPad*%
%ADD12R,1.700000X1.700000*%
%TD*%
%TA.AperFunction,ComponentPad*%
%ADD13O,1.700000X1.700000*%
%TD*%
%TA.AperFunction,ComponentPad*%
%ADD14C,1.524000*%
%TD*%
%TA.AperFunction,Conductor*%
%ADD15C,0.381000*%
%TD*%
%TA.AperFunction,Conductor*%
%ADD16C,0.200000*%
%TD*%
%TA.AperFunction,Conductor*%
%ADD17C,0.508000*%
%TD*%
G04 APERTURE END LIST*
D10*
%TO.P,C1,1*%
%TO.N,Net-(J1-Pin_8)*%
X116202323Y-95040000D03*
D11*
%TO.P,C1,2*%
%TO.N,Net-(J1-Pin_1)*%
X121202323Y-95040000D03*
%TD*%
D12*
%TO.P,J1,1,Pin_1*%
%TO.N,Net-(J1-Pin_1)*%
X127340000Y-69790000D03*
D13*
%TO.P,J1,2,Pin_2*%
%TO.N,Net-(J1-Pin_2)*%
X127340000Y-72330000D03*
%TO.P,J1,3,Pin_3*%
%TO.N,Net-(J1-Pin_3)*%
X127340000Y-74870000D03*
%TO.P,J1,4,Pin_4*%
%TO.N,Net-(J1-Pin_4)*%
X127340000Y-77410000D03*
%TO.P,J1,5,Pin_5*%
%TO.N,Net-(J1-Pin_5)*%
X127340000Y-79950000D03*
%TO.P,J1,6,Pin_6*%
%TO.N,Net-(J1-Pin_6)*%
X127340000Y-82490000D03*
%TO.P,J1,7,Pin_7*%
%TO.N,Net-(J1-Pin_7)*%
X127340000Y-85030000D03*
%TO.P,J1,8,Pin_8*%
%TO.N,Net-(J1-Pin_8)*%
X127340000Y-87570000D03*
%TD*%
D14*
%TO.P,U1,0,GND*%
%TO.N,Net-(J1-Pin_1)*%
X116830000Y-82580000D03*
%TO.P,U1,1,CE*%
%TO.N,Net-(J1-Pin_2)*%
X116830000Y-80040000D03*
%TO.P,U1,2,SCK*%
%TO.N,Net-(J1-Pin_3)*%
X116830000Y-77500000D03*
%TO.P,U1,3,MISO*%
%TO.N,Net-(J1-Pin_4)*%
X116830000Y-74960000D03*
%TO.P,U1,4,1RQ*%
%TO.N,Net-(J1-Pin_5)*%
X114290000Y-74960000D03*
%TO.P,U1,5,MOSI*%
%TO.N,Net-(J1-Pin_6)*%
X114290000Y-77500000D03*
%TO.P,U1,6,CSN*%
%TO.N,Net-(J1-Pin_7)*%
X114290000Y-80040000D03*
%TO.P,U1,7,VCC*%
%TO.N,Net-(J1-Pin_8)*%
X114290000Y-82580000D03*
%TD*%
D15*
%TO.N,Net-(J1-Pin_1)*%
X119080000Y-82580000D02*
X116830000Y-82580000D01*
X121000000Y-84500000D02*
X119080000Y-82580000D01*
X122250000Y-84500000D02*
X121000000Y-84500000D01*
X123000000Y-83750000D02*
X122250000Y-84500000D01*
X130391000Y-83750000D02*
X123000000Y-83750000D01*
X130500000Y-83641000D02*
X130391000Y-83750000D01*
D16*
%TO.N,Net-(J1-Pin_5)*%
X114500000Y-74750000D02*
X114500000Y-73250000D01*
X125750000Y-74000000D02*
X126000000Y-73750000D01*
X114500000Y-73250000D02*
X124000000Y-73250000D01*
X130250000Y-79000000D02*
X128290000Y-79000000D01*
X124000000Y-73250000D02*
X124750000Y-74000000D01*
X114290000Y-74960000D02*
X114500000Y-74750000D01*
X124750000Y-74000000D02*
X125750000Y-74000000D01*
X128290000Y-79000000D02*
X127340000Y-79950000D01*
X131250000Y-73500000D02*
X131250000Y-78000000D01*
X126750000Y-73500000D02*
X131250000Y-73500000D01*
X126000000Y-73750000D02*
X126500000Y-73750000D01*
X131250000Y-78000000D02*
X130250000Y-79000000D01*
X126500000Y-73750000D02*
X126750000Y-73500000D01*
%TO.N,Net-(J1-Pin_2)*%
X113750000Y-72500000D02*
X127170000Y-72500000D01*
X112000000Y-74250000D02*
X113750000Y-72500000D01*
X116290000Y-80040000D02*
X115000000Y-78750000D01*
X112000000Y-78750000D02*
X112000000Y-74250000D01*
X127170000Y-72500000D02*
X127340000Y-72330000D01*
X116830000Y-80040000D02*
X116290000Y-80040000D01*
X115000000Y-78750000D02*
X112000000Y-78750000D01*
D17*
%TO.N,Net-(J1-Pin_8)*%
X114290000Y-86790000D02*
X115500000Y-88000000D01*
X111250000Y-90087677D02*
X111250000Y-85620000D01*
X114290000Y-82580000D02*
X114290000Y-86790000D01*
X116202323Y-95040000D02*
X111250000Y-90087677D01*
X111250000Y-85620000D02*
X114290000Y-82580000D01*
X115500000Y-88000000D02*
X126910000Y-88000000D01*
D16*
X126910000Y-88000000D02*
X127340000Y-87570000D01*
%TO.N,Net-(J1-Pin_4)*%
X122021000Y-75271000D02*
X124000000Y-77250000D01*
X121703900Y-75271000D02*
X122021000Y-75271000D01*
X116870000Y-75000000D02*
X119250000Y-75000000D01*
X121469000Y-75036100D02*
X121703900Y-75271000D01*
X127180000Y-77250000D02*
X127340000Y-77410000D01*
X116830000Y-74960000D02*
X116870000Y-75000000D01*
X120583900Y-74151000D02*
X121469000Y-75036100D01*
X119250000Y-75000000D02*
X120099000Y-74151000D01*
X120099000Y-74151000D02*
X120583900Y-74151000D01*
X124000000Y-77250000D02*
X127180000Y-77250000D01*
D15*
%TO.N,Net-(J1-Pin_1)*%
X128560000Y-69690000D02*
X128750000Y-69500000D01*
X131859000Y-83641000D02*
X132000000Y-83500000D01*
X132000000Y-83500000D02*
X132000000Y-69500000D01*
X132000000Y-88250000D02*
X132000000Y-85141000D01*
X121202323Y-92047677D02*
X122750000Y-90500000D01*
X121202323Y-95040000D02*
X121202323Y-92047677D01*
X130500000Y-83641000D02*
X131859000Y-83641000D01*
X132000000Y-85141000D02*
X130500000Y-83641000D01*
X132000000Y-69500000D02*
X128750000Y-69500000D01*
X127440000Y-69690000D02*
X128560000Y-69690000D01*
X127340000Y-69790000D02*
X127440000Y-69690000D01*
X122750000Y-90500000D02*
X129750000Y-90500000D01*
X129750000Y-90500000D02*
X132000000Y-88250000D01*
D16*
%TO.N,Net-(J1-Pin_3)*%
X116830000Y-77500000D02*
X116750000Y-77500000D01*
X115750000Y-73750000D02*
X120750000Y-73750000D01*
X120750000Y-73750000D02*
X121870000Y-74870000D01*
X121870000Y-74870000D02*
X127340000Y-74870000D01*
X116750000Y-77500000D02*
X115500000Y-76250000D01*
X115500000Y-76250000D02*
X115500000Y-74000000D01*
X115500000Y-74000000D02*
X115750000Y-73750000D01*
%TO.N,Net-(J1-Pin_7)*%
X126120000Y-86250000D02*
X127340000Y-85030000D01*
X117000000Y-86250000D02*
X126120000Y-86250000D01*
X115500000Y-81250000D02*
X115500000Y-84750000D01*
X115500000Y-84750000D02*
X117000000Y-86250000D01*
X114290000Y-80040000D02*
X115500000Y-81250000D01*
%TO.N,Net-(J1-Pin_6)*%
X116000000Y-78750000D02*
X119500000Y-78750000D01*
X124750000Y-81000000D02*
X126240000Y-82490000D01*
X114290000Y-77500000D02*
X114750000Y-77500000D01*
X121750000Y-81000000D02*
X124750000Y-81000000D01*
X114750000Y-77500000D02*
X116000000Y-78750000D01*
X126240000Y-82490000D02*
X127340000Y-82490000D01*
X119500000Y-78750000D02*
X121750000Y-81000000D01*
%TD*%
%TA.AperFunction,Conductor*%
%TO.N,Net-(J1-Pin_1)*%
G36*
X119266942Y-79370185D02*
G01*
X119287583Y-79386818D01*
X121381284Y-81480520D01*
X121381286Y-81480521D01*
X121381290Y-81480524D01*
X121518209Y-81559573D01*
X121518216Y-81559577D01*
X121670943Y-81600501D01*
X121670945Y-81600501D01*
X121836654Y-81600501D01*
X121836670Y-81600500D01*
X124449903Y-81600500D01*
X124516942Y-81620185D01*
X124537584Y-81636819D01*
X125755139Y-82854374D01*
X125755149Y-82854385D01*
X125759479Y-82858715D01*
X125759480Y-82858716D01*
X125871284Y-82970520D01*
X125914947Y-82995728D01*
X125950686Y-83016362D01*
X125950688Y-83016363D01*
X125958095Y-83020639D01*
X126008215Y-83049577D01*
X126079521Y-83068683D01*
X126086655Y-83071580D01*
X126108225Y-83088716D01*
X126131752Y-83103057D01*
X126138413Y-83112700D01*
X126141361Y-83115042D01*
X126142653Y-83118838D01*
X126150483Y-83130172D01*
X126184950Y-83197817D01*
X126184956Y-83197826D01*
X126309890Y-83369786D01*
X126460213Y-83520109D01*
X126632182Y-83645050D01*
X126640946Y-83649516D01*
X126691742Y-83697491D01*
X126708536Y-83765312D01*
X126685998Y-83831447D01*
X126640946Y-83870484D01*
X126632182Y-83874949D01*
X126460213Y-83999890D01*
X126309890Y-84150213D01*
X126184951Y-84322179D01*
X126088444Y-84511585D01*
X126022753Y-84713760D01*
X125989500Y-84923713D01*
X125989500Y-85136287D01*
X125989935Y-85139031D01*
X126022754Y-85346244D01*
X126022754Y-85346247D01*
X126036491Y-85388523D01*
X126036925Y-85403735D01*
X126042244Y-85417994D01*
X126037902Y-85437950D01*
X126038486Y-85458364D01*
X126030398Y-85472448D01*
X126027393Y-85486267D01*
X126006242Y-85514521D01*
X125907585Y-85613180D01*
X125846262Y-85646666D01*
X125819903Y-85649500D01*
X117300097Y-85649500D01*
X117233058Y-85629815D01*
X117212416Y-85613181D01*
X116136819Y-84537584D01*
X116103334Y-84476261D01*
X116100500Y-84449903D01*
X116100500Y-83827026D01*
X116120185Y-83759987D01*
X116172989Y-83714232D01*
X116242147Y-83704288D01*
X116280796Y-83716542D01*
X116345560Y-83749541D01*
X116534477Y-83810924D01*
X116730679Y-83842000D01*
X116929321Y-83842000D01*
X117125520Y-83810924D01*
X117125523Y-83810924D01*
X117314437Y-83749542D01*
X117491425Y-83659362D01*
X117528715Y-83632268D01*
X116857447Y-82961000D01*
X116880160Y-82961000D01*
X116977061Y-82935036D01*
X117063940Y-82884876D01*
X117134876Y-82813940D01*
X117185036Y-82727061D01*
X117211000Y-82630160D01*
X117211000Y-82607447D01*
X117882268Y-83278715D01*
X117909362Y-83241425D01*
X117999542Y-83064437D01*
X118060924Y-82875523D01*
X118060924Y-82875520D01*
X118092000Y-82679321D01*
X118092000Y-82480678D01*
X118060924Y-82284479D01*
X118060924Y-82284476D01*
X117999542Y-82095562D01*
X117909358Y-81918567D01*
X117882268Y-81881283D01*
X117211000Y-82552551D01*
X117211000Y-82529840D01*
X117185036Y-82432939D01*
X117134876Y-82346060D01*
X117063940Y-82275124D01*
X116977061Y-82224964D01*
X116880160Y-82199000D01*
X116857446Y-82199000D01*
X117528715Y-81527730D01*
X117491432Y-81500641D01*
X117334668Y-81420765D01*
X117283872Y-81372790D01*
X117267077Y-81304969D01*
X117289615Y-81238834D01*
X117334667Y-81199796D01*
X117491694Y-81119787D01*
X117652464Y-81002981D01*
X117792981Y-80862464D01*
X117909787Y-80701694D01*
X118000005Y-80524632D01*
X118061413Y-80335636D01*
X118092500Y-80139361D01*
X118092500Y-79940639D01*
X118061413Y-79744364D01*
X118021379Y-79621152D01*
X118000006Y-79555370D01*
X118000005Y-79555368D01*
X117987485Y-79530797D01*
X117974588Y-79462128D01*
X118000863Y-79397387D01*
X118057969Y-79357129D01*
X118097969Y-79350500D01*
X119199903Y-79350500D01*
X119266942Y-79370185D01*
G37*
%TD.AperFunction*%
%TA.AperFunction,Conductor*%
G36*
X137062539Y-63619685D02*
G01*
X137108294Y-63672489D01*
X137119500Y-63724000D01*
X137119500Y-96476000D01*
X137099815Y-96543039D01*
X137047011Y-96588794D01*
X136995500Y-96600000D01*
X124400000Y-96600000D01*
X124400000Y-99548638D01*
X124380315Y-99615677D01*
X124363681Y-99636319D01*
X122417176Y-101582823D01*
X122377614Y-101609425D01*
X118646270Y-103180517D01*
X118576845Y-103188390D01*
X118553208Y-103181803D01*
X115024300Y-101809450D01*
X114981562Y-101781562D01*
X112756819Y-99556819D01*
X112723334Y-99495496D01*
X112720500Y-99469138D01*
X112720500Y-97184110D01*
X112720500Y-97184108D01*
X112686392Y-97056814D01*
X112620500Y-96942686D01*
X112616613Y-96935953D01*
X112600000Y-96873953D01*
X112600000Y-96600000D01*
X99524000Y-96600000D01*
X99456961Y-96580315D01*
X99411206Y-96527511D01*
X99400000Y-96476000D01*
X99400000Y-90161991D01*
X110495498Y-90161991D01*
X110524493Y-90307750D01*
X110524496Y-90307760D01*
X110581366Y-90445058D01*
X110581372Y-90445069D01*
X110663942Y-90568645D01*
X110663943Y-90568646D01*
X114665504Y-94570205D01*
X114698989Y-94631528D01*
X114701823Y-94657886D01*
X114701823Y-96087870D01*
X114701824Y-96087876D01*
X114708231Y-96147483D01*
X114758525Y-96282328D01*
X114758529Y-96282335D01*
X114844775Y-96397544D01*
X114844778Y-96397547D01*
X114959987Y-96483793D01*
X114959994Y-96483797D01*
X115094840Y-96534091D01*
X115094839Y-96534091D01*
X115101767Y-96534835D01*
X115154450Y-96540500D01*
X117250195Y-96540499D01*
X117309806Y-96534091D01*
X117444654Y-96483796D01*
X117559869Y-96397546D01*
X117646119Y-96282331D01*
X117696414Y-96147483D01*
X117702823Y-96087873D01*
X117702822Y-94921947D01*
X119702323Y-94921947D01*
X119702323Y-95158052D01*
X119739257Y-95391247D01*
X119812220Y-95615802D01*
X119919410Y-95826174D01*
X119979661Y-95909104D01*
X119979663Y-95909105D01*
X120719360Y-95169408D01*
X120736398Y-95232993D01*
X120802224Y-95347007D01*
X120895316Y-95440099D01*
X121009330Y-95505925D01*
X121072913Y-95522962D01*
X120333216Y-96262658D01*
X120416151Y-96322914D01*
X120626520Y-96430102D01*
X120851075Y-96503065D01*
X120851074Y-96503065D01*
X121084271Y-96540000D01*
X121320375Y-96540000D01*
X121553570Y-96503065D01*
X121778125Y-96430102D01*
X121988486Y-96322918D01*
X121988492Y-96322914D01*
X122071427Y-96262658D01*
X122071428Y-96262658D01*
X121331731Y-95522962D01*
X121395316Y-95505925D01*
X121509330Y-95440099D01*
X121602422Y-95347007D01*
X121668248Y-95232993D01*
X121685285Y-95169409D01*
X122424981Y-95909105D01*
X122424981Y-95909104D01*
X122485237Y-95826169D01*
X122485241Y-95826163D01*
X122592425Y-95615802D01*
X122665388Y-95391247D01*
X122702323Y-95158052D01*
X122702323Y-94921947D01*
X122665388Y-94688752D01*
X122592425Y-94464197D01*
X122485237Y-94253828D01*
X122424981Y-94170894D01*
X122424981Y-94170893D01*
X121685285Y-94910590D01*
X121668248Y-94847007D01*
X121602422Y-94732993D01*
X121509330Y-94639901D01*
X121395316Y-94574075D01*
X121331732Y-94557037D01*
X122071428Y-93817340D01*
X122071427Y-93817338D01*
X121988497Y-93757087D01*
X121778125Y-93649897D01*
X121553570Y-93576934D01*
X121553571Y-93576934D01*
X121320375Y-93540000D01*
X121084271Y-93540000D01*
X120851075Y-93576934D01*
X120626520Y-93649897D01*
X120416153Y-93757084D01*
X120333217Y-93817340D01*
X121072914Y-94557037D01*
X121009330Y-94574075D01*
X120895316Y-94639901D01*
X120802224Y-94732993D01*
X120736398Y-94847007D01*
X120719360Y-94910591D01*
X119979663Y-94170894D01*
X119919407Y-94253830D01*
X119812220Y-94464197D01*
X119739257Y-94688752D01*
X119702323Y-94921947D01*
X117702822Y-94921947D01*
X117702822Y-93992128D01*
X117696414Y-93932517D01*
X117696413Y-93932514D01*
X117687245Y-93907931D01*
X117646120Y-93797671D01*
X117646116Y-93797664D01*
X117559870Y-93682455D01*
X117559867Y-93682452D01*
X117444658Y-93596206D01*
X117444651Y-93596202D01*
X117309805Y-93545908D01*
X117309806Y-93545908D01*
X117250206Y-93539501D01*
X117250204Y-93539500D01*
X117250196Y-93539500D01*
X117250188Y-93539500D01*
X115820209Y-93539500D01*
X115753170Y-93519815D01*
X115732528Y-93503181D01*
X112040819Y-89811471D01*
X112007334Y-89750148D01*
X112004500Y-89723790D01*
X112004500Y-85983886D01*
X112024185Y-85916847D01*
X112040819Y-85896205D01*
X113323819Y-84613205D01*
X113385142Y-84579720D01*
X113454834Y-84584704D01*
X113510767Y-84626576D01*
X113535184Y-84692040D01*
X113535500Y-84700886D01*
X113535500Y-86710552D01*
X113535499Y-86710578D01*
X113535499Y-86715688D01*
X113535499Y-86864312D01*
X113535499Y-86864314D01*
X113535498Y-86864314D01*
X113564493Y-87010073D01*
X113564496Y-87010083D01*
X113621366Y-87147381D01*
X113621372Y-87147392D01*
X113703942Y-87270968D01*
X113703943Y-87270969D01*
X114909600Y-88476624D01*
X114909621Y-88476647D01*
X115019028Y-88586054D01*
X115019035Y-88586060D01*
X115142608Y-88668628D01*
X115142609Y-88668628D01*
X115142610Y-88668629D01*
X115279920Y-88725505D01*
X115425683Y-88754499D01*
X115425687Y-88754500D01*
X115425688Y-88754500D01*
X126660211Y-88754500D01*
X126716505Y-88768014D01*
X126821588Y-88821557D01*
X127023757Y-88887246D01*
X127233713Y-88920500D01*
X127233714Y-88920500D01*
X127446286Y-88920500D01*
X127446287Y-88920500D01*
X127656243Y-88887246D01*
X127858412Y-88821557D01*
X128047816Y-88725051D01*
X128125476Y-88668628D01*
X128219786Y-88600109D01*
X128219788Y-88600106D01*
X128219792Y-88600104D01*
X128370104Y-88449792D01*
X128370106Y-88449788D01*
X128370109Y-88449786D01*
X128495048Y-88277820D01*
X128495047Y-88277820D01*
X128495051Y-88277816D01*
X128591557Y-88088412D01*
X128657246Y-87886243D01*
X128690500Y-87676287D01*
X128690500Y-87463713D01*
X128657246Y-87253757D01*
X128591557Y-87051588D01*
X128495051Y-86862184D01*
X128495049Y-86862181D01*
X128495048Y-86862179D01*
X128370109Y-86690213D01*
X128219786Y-86539890D01*
X128047820Y-86414951D01*
X128047115Y-86414591D01*
X128039054Y-86410485D01*
X127988259Y-86362512D01*
X127971463Y-86294692D01*
X127993999Y-86228556D01*
X128039054Y-86189515D01*
X128047816Y-86185051D01*
X128069789Y-86169086D01*
X128219786Y-86060109D01*
X128219788Y-86060106D01*
X128219792Y-86060104D01*
X128370104Y-85909792D01*
X128370106Y-85909788D01*
X128370109Y-85909786D01*
X128495048Y-85737820D01*
X128495047Y-85737820D01*
X128495051Y-85737816D01*
X128591557Y-85548412D01*
X128657246Y-85346243D01*
X128690500Y-85136287D01*
X128690500Y-84923713D01*
X128657246Y-84713757D01*
X128591557Y-84511588D01*
X128495051Y-84322184D01*
X128495049Y-84322181D01*
X128495048Y-84322179D01*
X128370109Y-84150213D01*
X128219786Y-83999890D01*
X128047820Y-83874951D01*
X128047115Y-83874591D01*
X128039054Y-83870485D01*
X127988259Y-83822512D01*
X127971463Y-83754692D01*
X127993999Y-83688556D01*
X128039054Y-83649515D01*
X128047816Y-83645051D01*
X128069789Y-83629086D01*
X128219786Y-83520109D01*
X128219788Y-83520106D01*
X128219792Y-83520104D01*
X128370104Y-83369792D01*
X128370106Y-83369788D01*
X128370109Y-83369786D01*
X128495048Y-83197820D01*
X128495050Y-83197817D01*
X128495051Y-83197816D01*
X128591557Y-83008412D01*
X128657246Y-82806243D01*
X128690500Y-82596287D01*
X128690500Y-82383713D01*
X128657246Y-82173757D01*
X128591557Y-81971588D01*
X128495051Y-81782184D01*
X128495049Y-81782181D01*
X128495048Y-81782179D01*
X128370109Y-81610213D01*
X128219786Y-81459890D01*
X128047820Y-81334951D01*
X128047115Y-81334591D01*
X128039054Y-81330485D01*
X127988259Y-81282512D01*
X127971463Y-81214692D01*
X127993999Y-81148556D01*
X128039054Y-81109515D01*
X128047816Y-81105051D01*
X128128752Y-81046248D01*
X128219786Y-80980109D01*
X128219788Y-80980106D01*
X128219792Y-80980104D01*
X128370104Y-80829792D01*
X128370106Y-80829788D01*
X128370109Y-80829786D01*
X128495048Y-80657820D01*
X128495047Y-80657820D01*
X128495051Y-80657816D01*
X128591557Y-80468412D01*
X128657246Y-80266243D01*
X128690500Y-80056287D01*
X128690500Y-79843713D01*
X128674691Y-79743898D01*
X128683646Y-79674604D01*
X128728642Y-79621152D01*
X128795394Y-79600513D01*
X128797164Y-79600500D01*
X130163331Y-79600500D01*
X130163347Y-79600501D01*
X130170943Y-79600501D01*
X130329054Y-79600501D01*
X130329057Y-79600501D01*
X130481785Y-79559577D01*
X130531904Y-79530639D01*
X130618716Y-79480520D01*
X130730520Y-79368716D01*
X130730520Y-79368714D01*
X130740728Y-79358507D01*
X130740729Y-79358504D01*
X131730520Y-78368716D01*
X131809577Y-78231784D01*
X131850501Y-78079057D01*
X131850501Y-77920942D01*
X131850501Y-77913347D01*
X131850500Y-77913329D01*
X131850500Y-73420945D01*
X131850500Y-73420943D01*
X131809577Y-73268216D01*
X131809573Y-73268209D01*
X131730524Y-73131290D01*
X131730518Y-73131282D01*
X131618717Y-73019481D01*
X131618709Y-73019475D01*
X131481790Y-72940426D01*
X131481786Y-72940424D01*
X131481784Y-72940423D01*
X131329057Y-72899500D01*
X131329056Y-72899500D01*
X128745629Y-72899500D01*
X128678590Y-72879815D01*
X128632835Y-72827011D01*
X128622891Y-72757853D01*
X128627698Y-72737182D01*
X128628047Y-72736106D01*
X128657246Y-72646243D01*
X128690500Y-72436287D01*
X128690500Y-72223713D01*
X128657246Y-72013757D01*
X128591557Y-71811588D01*
X128495051Y-71622184D01*
X128495049Y-71622181D01*
X128495048Y-71622179D01*
X128370109Y-71450213D01*
X128256181Y-71336285D01*
X128222696Y-71274962D01*
X128227680Y-71205270D01*
X128269552Y-71149337D01*
X128300529Y-71132422D01*
X128432086Y-71083354D01*
X128432093Y-71083350D01*
X128547187Y-70997190D01*
X128547190Y-70997187D01*
X128633350Y-70882093D01*
X128633354Y-70882086D01*
X128683596Y-70747379D01*
X128683598Y-70747372D01*
X128689999Y-70687844D01*
X128690000Y-70687827D01*
X128690000Y-70040000D01*
X127773012Y-70040000D01*
X127805925Y-69982993D01*
X127840000Y-69855826D01*
X127840000Y-69724174D01*
X127805925Y-69597007D01*
X127773012Y-69540000D01*
X128690000Y-69540000D01*
X128690000Y-68892172D01*
X128689999Y-68892155D01*
X128683598Y-68832627D01*
X128683596Y-68832620D01*
X128633354Y-68697913D01*
X128633350Y-68697906D01*
X128547190Y-68582812D01*
X128547187Y-68582809D01*
X128432093Y-68496649D01*
X128432086Y-68496645D01*
X128297379Y-68446403D01*
X128297372Y-68446401D01*
X128237844Y-68440000D01*
X127590000Y-68440000D01*
X127590000Y-69356988D01*
X127532993Y-69324075D01*
X127405826Y-69290000D01*
X127274174Y-69290000D01*
X127147007Y-69324075D01*
X127090000Y-69356988D01*
X127090000Y-68440000D01*
X126442155Y-68440000D01*
X126382627Y-68446401D01*
X126382620Y-68446403D01*
X126247913Y-68496645D01*
X126247906Y-68496649D01*
X126132812Y-68582809D01*
X126132809Y-68582812D01*
X126046649Y-68697906D01*
X126046645Y-68697913D01*
X125996403Y-68832620D01*
X125996401Y-68832627D01*
X125990000Y-68892155D01*
X125990000Y-69540000D01*
X126906988Y-69540000D01*
X126874075Y-69597007D01*
X126840000Y-69724174D01*
X126840000Y-69855826D01*
X126874075Y-69982993D01*
X126906988Y-70040000D01*
X125990000Y-70040000D01*
X125990000Y-70687844D01*
X125996401Y-70747372D01*
X125996403Y-70747379D01*
X126046645Y-70882086D01*
X126046649Y-70882093D01*
X126132809Y-70997187D01*
X126132812Y-70997190D01*
X126247906Y-71083350D01*
X126247913Y-71083354D01*
X126379470Y-71132422D01*
X126435404Y-71174293D01*
X126459821Y-71239758D01*
X126444969Y-71308031D01*
X126423819Y-71336285D01*
X126309889Y-71450215D01*
X126184951Y-71622179D01*
X126088443Y-71811587D01*
X126087718Y-71813819D01*
X126087212Y-71814557D01*
X126086579Y-71816088D01*
X126086257Y-71815954D01*
X126048280Y-71871494D01*
X125983921Y-71898692D01*
X125969787Y-71899500D01*
X113836670Y-71899500D01*
X113836654Y-71899499D01*
X113829058Y-71899499D01*
X113670943Y-71899499D01*
X113594579Y-71919961D01*
X113518214Y-71940423D01*
X113518209Y-71940426D01*
X113381290Y-72019475D01*
X113381282Y-72019481D01*
X111519481Y-73881282D01*
X111519479Y-73881285D01*
X111469361Y-73968094D01*
X111469359Y-73968096D01*
X111440425Y-74018209D01*
X111440424Y-74018210D01*
X111440423Y-74018215D01*
X111399499Y-74170943D01*
X111399499Y-74170945D01*
X111399499Y-74339046D01*
X111399500Y-74339059D01*
X111399500Y-78829056D01*
X111440423Y-78981783D01*
X111440426Y-78981790D01*
X111519475Y-79118709D01*
X111519479Y-79118714D01*
X111519480Y-79118716D01*
X111631284Y-79230520D01*
X111631286Y-79230521D01*
X111631290Y-79230524D01*
X111768209Y-79309573D01*
X111768216Y-79309577D01*
X111920943Y-79350500D01*
X113022031Y-79350500D01*
X113089070Y-79370185D01*
X113134825Y-79422989D01*
X113144769Y-79492147D01*
X113132515Y-79530797D01*
X113119994Y-79555368D01*
X113119993Y-79555370D01*
X113058587Y-79744362D01*
X113027500Y-79940639D01*
X113027500Y-80139361D01*
X113043043Y-80237498D01*
X113058587Y-80335637D01*
X113119993Y-80524629D01*
X113119994Y-80524632D01*
X113157526Y-80598291D01*
X113210213Y-80701694D01*
X113327019Y-80862464D01*
X113467536Y-81002981D01*
X113628306Y-81119787D01*
X113702304Y-81157491D01*
X113784780Y-81199515D01*
X113835576Y-81247490D01*
X113852371Y-81315311D01*
X113829833Y-81381446D01*
X113784780Y-81420485D01*
X113628305Y-81500213D01*
X113467533Y-81617021D01*
X113327021Y-81757533D01*
X113210213Y-81918305D01*
X113119994Y-82095367D01*
X113119993Y-82095370D01*
X113058587Y-82284362D01*
X113027500Y-82480639D01*
X113027500Y-82679366D01*
X113030757Y-82699931D01*
X113021802Y-82769224D01*
X112995965Y-82807009D01*
X110663943Y-85139030D01*
X110663942Y-85139031D01*
X110581372Y-85262607D01*
X110581366Y-85262618D01*
X110524496Y-85399916D01*
X110524493Y-85399926D01*
X110495499Y-85545685D01*
X110495499Y-85545687D01*
X110495499Y-85545688D01*
X110495499Y-85694312D01*
X110495499Y-85694316D01*
X110495500Y-85700436D01*
X110495500Y-90008229D01*
X110495499Y-90008255D01*
X110495499Y-90013365D01*
X110495499Y-90161989D01*
X110495499Y-90161991D01*
X110495498Y-90161991D01*
X99400000Y-90161991D01*
X99400000Y-63724000D01*
X99419685Y-63656961D01*
X99472489Y-63611206D01*
X99524000Y-63600000D01*
X136995500Y-63600000D01*
X137062539Y-63619685D01*
G37*
%TD.AperFunction*%
%TD*%
M02*
