%TF.GenerationSoftware,KiCad,Pcbnew,9.0.0-rc1*%
%TF.CreationDate,2025-03-07T01:04:17+01:00*%
%TF.ProjectId,nRF24-breakout,6e524632-342d-4627-9265-616b6f75742e,rev?*%
%TF.SameCoordinates,Original*%
%TF.FileFunction,Drillmap*%
%TF.FilePolarity,Positive*%
%FSLAX45Y45*%
G04 Gerber Fmt 4.5, Leading zero omitted, Abs format (unit mm)*
G04 Created by KiCad (PCBNEW 9.0.0-rc1) date 2025-03-07 01:04:17*
%MOMM*%
%LPD*%
G01*
G04 APERTURE LIST*
%ADD10C,0.050000*%
%ADD11C,0.200000*%
G04 APERTURE END LIST*
D10*
X12492000Y-9979000D02*
X12492000Y-9725000D01*
X9825000Y-6296000D02*
X13762000Y-6296000D01*
X11222000Y-9725000D02*
X10714000Y-9725000D01*
X13762000Y-6296000D02*
X13762000Y-9725000D01*
X9825000Y-9725000D02*
X10714000Y-9725000D01*
X11222000Y-9979000D02*
X11222000Y-9725000D01*
X11476000Y-10233000D02*
X11857000Y-10375634D01*
X12238000Y-10233000D02*
X11857000Y-10375634D01*
X9825000Y-6296000D02*
X9825000Y-9725000D01*
X12238000Y-10233000D02*
X12492000Y-9979000D01*
X12492000Y-9725000D02*
X12873000Y-9725000D01*
X11476000Y-10233000D02*
X11222000Y-9979000D01*
X12873000Y-9725000D02*
X13762000Y-9725000D01*
D11*
X10083277Y-10689618D02*
X10083277Y-10489618D01*
X10083277Y-10489618D02*
X10130896Y-10489618D01*
X10130896Y-10489618D02*
X10159467Y-10499142D01*
X10159467Y-10499142D02*
X10178515Y-10518190D01*
X10178515Y-10518190D02*
X10188039Y-10537237D01*
X10188039Y-10537237D02*
X10197563Y-10575332D01*
X10197563Y-10575332D02*
X10197563Y-10603904D01*
X10197563Y-10603904D02*
X10188039Y-10641999D01*
X10188039Y-10641999D02*
X10178515Y-10661047D01*
X10178515Y-10661047D02*
X10159467Y-10680094D01*
X10159467Y-10680094D02*
X10130896Y-10689618D01*
X10130896Y-10689618D02*
X10083277Y-10689618D01*
X10283277Y-10689618D02*
X10283277Y-10556285D01*
X10283277Y-10594380D02*
X10292801Y-10575332D01*
X10292801Y-10575332D02*
X10302324Y-10565809D01*
X10302324Y-10565809D02*
X10321372Y-10556285D01*
X10321372Y-10556285D02*
X10340420Y-10556285D01*
X10407086Y-10689618D02*
X10407086Y-10556285D01*
X10407086Y-10489618D02*
X10397563Y-10499142D01*
X10397563Y-10499142D02*
X10407086Y-10508666D01*
X10407086Y-10508666D02*
X10416610Y-10499142D01*
X10416610Y-10499142D02*
X10407086Y-10489618D01*
X10407086Y-10489618D02*
X10407086Y-10508666D01*
X10530896Y-10689618D02*
X10511848Y-10680094D01*
X10511848Y-10680094D02*
X10502324Y-10661047D01*
X10502324Y-10661047D02*
X10502324Y-10489618D01*
X10635658Y-10689618D02*
X10616610Y-10680094D01*
X10616610Y-10680094D02*
X10607086Y-10661047D01*
X10607086Y-10661047D02*
X10607086Y-10489618D01*
X10864229Y-10689618D02*
X10864229Y-10489618D01*
X10864229Y-10489618D02*
X10930896Y-10632475D01*
X10930896Y-10632475D02*
X10997563Y-10489618D01*
X10997563Y-10489618D02*
X10997563Y-10689618D01*
X11178515Y-10689618D02*
X11178515Y-10584856D01*
X11178515Y-10584856D02*
X11168991Y-10565809D01*
X11168991Y-10565809D02*
X11149944Y-10556285D01*
X11149944Y-10556285D02*
X11111848Y-10556285D01*
X11111848Y-10556285D02*
X11092801Y-10565809D01*
X11178515Y-10680094D02*
X11159467Y-10689618D01*
X11159467Y-10689618D02*
X11111848Y-10689618D01*
X11111848Y-10689618D02*
X11092801Y-10680094D01*
X11092801Y-10680094D02*
X11083277Y-10661047D01*
X11083277Y-10661047D02*
X11083277Y-10641999D01*
X11083277Y-10641999D02*
X11092801Y-10622952D01*
X11092801Y-10622952D02*
X11111848Y-10613428D01*
X11111848Y-10613428D02*
X11159467Y-10613428D01*
X11159467Y-10613428D02*
X11178515Y-10603904D01*
X11273753Y-10556285D02*
X11273753Y-10756285D01*
X11273753Y-10565809D02*
X11292801Y-10556285D01*
X11292801Y-10556285D02*
X11330896Y-10556285D01*
X11330896Y-10556285D02*
X11349943Y-10565809D01*
X11349943Y-10565809D02*
X11359467Y-10575332D01*
X11359467Y-10575332D02*
X11368991Y-10594380D01*
X11368991Y-10594380D02*
X11368991Y-10651523D01*
X11368991Y-10651523D02*
X11359467Y-10670571D01*
X11359467Y-10670571D02*
X11349943Y-10680094D01*
X11349943Y-10680094D02*
X11330896Y-10689618D01*
X11330896Y-10689618D02*
X11292801Y-10689618D01*
X11292801Y-10689618D02*
X11273753Y-10680094D01*
X11454705Y-10670571D02*
X11464229Y-10680094D01*
X11464229Y-10680094D02*
X11454705Y-10689618D01*
X11454705Y-10689618D02*
X11445182Y-10680094D01*
X11445182Y-10680094D02*
X11454705Y-10670571D01*
X11454705Y-10670571D02*
X11454705Y-10689618D01*
X11454705Y-10565809D02*
X11464229Y-10575332D01*
X11464229Y-10575332D02*
X11454705Y-10584856D01*
X11454705Y-10584856D02*
X11445182Y-10575332D01*
X11445182Y-10575332D02*
X11454705Y-10565809D01*
X11454705Y-10565809D02*
X11454705Y-10584856D01*
M02*
