%TF.GenerationSoftware,KiCad,Pcbnew,9.0.0-rc1*%
%TF.CreationDate,2025-03-07T01:01:45+01:00*%
%TF.ProjectId,nRF24-breakout,6e524632-342d-4627-9265-616b6f75742e,rev?*%
%TF.SameCoordinates,Original*%
%TF.FileFunction,Paste,Top*%
%TF.FilePolarity,Positive*%
%FSLAX46Y46*%
G04 Gerber Fmt 4.6, Leading zero omitted, Abs format (unit mm)*
G04 Created by KiCad (PCBNEW 9.0.0-rc1) date 2025-03-07 01:01:45*
%MOMM*%
%LPD*%
G01*
G04 APERTURE LIST*
%ADD10C,0.125000*%
G04 APERTURE END LIST*
D10*
X112884690Y-80677474D02*
X112908500Y-80701283D01*
X112908500Y-80701283D02*
X112932309Y-80772712D01*
X112932309Y-80772712D02*
X112932309Y-80820331D01*
X112932309Y-80820331D02*
X112908500Y-80891759D01*
X112908500Y-80891759D02*
X112860880Y-80939378D01*
X112860880Y-80939378D02*
X112813261Y-80963188D01*
X112813261Y-80963188D02*
X112718023Y-80986997D01*
X112718023Y-80986997D02*
X112646595Y-80986997D01*
X112646595Y-80986997D02*
X112551357Y-80963188D01*
X112551357Y-80963188D02*
X112503738Y-80939378D01*
X112503738Y-80939378D02*
X112456119Y-80891759D01*
X112456119Y-80891759D02*
X112432309Y-80820331D01*
X112432309Y-80820331D02*
X112432309Y-80772712D01*
X112432309Y-80772712D02*
X112456119Y-80701283D01*
X112456119Y-80701283D02*
X112479928Y-80677474D01*
X112908500Y-80486997D02*
X112932309Y-80415569D01*
X112932309Y-80415569D02*
X112932309Y-80296521D01*
X112932309Y-80296521D02*
X112908500Y-80248902D01*
X112908500Y-80248902D02*
X112884690Y-80225093D01*
X112884690Y-80225093D02*
X112837071Y-80201283D01*
X112837071Y-80201283D02*
X112789452Y-80201283D01*
X112789452Y-80201283D02*
X112741833Y-80225093D01*
X112741833Y-80225093D02*
X112718023Y-80248902D01*
X112718023Y-80248902D02*
X112694214Y-80296521D01*
X112694214Y-80296521D02*
X112670404Y-80391759D01*
X112670404Y-80391759D02*
X112646595Y-80439378D01*
X112646595Y-80439378D02*
X112622785Y-80463188D01*
X112622785Y-80463188D02*
X112575166Y-80486997D01*
X112575166Y-80486997D02*
X112527547Y-80486997D01*
X112527547Y-80486997D02*
X112479928Y-80463188D01*
X112479928Y-80463188D02*
X112456119Y-80439378D01*
X112456119Y-80439378D02*
X112432309Y-80391759D01*
X112432309Y-80391759D02*
X112432309Y-80272712D01*
X112432309Y-80272712D02*
X112456119Y-80201283D01*
X112932309Y-79986998D02*
X112432309Y-79986998D01*
X112432309Y-79986998D02*
X112932309Y-79701284D01*
X112932309Y-79701284D02*
X112432309Y-79701284D01*
X118341500Y-76786812D02*
X118317690Y-76858240D01*
X118317690Y-76858240D02*
X118317690Y-76977288D01*
X118317690Y-76977288D02*
X118341500Y-77024907D01*
X118341500Y-77024907D02*
X118365309Y-77048716D01*
X118365309Y-77048716D02*
X118412928Y-77072526D01*
X118412928Y-77072526D02*
X118460547Y-77072526D01*
X118460547Y-77072526D02*
X118508166Y-77048716D01*
X118508166Y-77048716D02*
X118531976Y-77024907D01*
X118531976Y-77024907D02*
X118555785Y-76977288D01*
X118555785Y-76977288D02*
X118579595Y-76882050D01*
X118579595Y-76882050D02*
X118603404Y-76834431D01*
X118603404Y-76834431D02*
X118627214Y-76810621D01*
X118627214Y-76810621D02*
X118674833Y-76786812D01*
X118674833Y-76786812D02*
X118722452Y-76786812D01*
X118722452Y-76786812D02*
X118770071Y-76810621D01*
X118770071Y-76810621D02*
X118793880Y-76834431D01*
X118793880Y-76834431D02*
X118817690Y-76882050D01*
X118817690Y-76882050D02*
X118817690Y-77001097D01*
X118817690Y-77001097D02*
X118793880Y-77072526D01*
X118365309Y-77572525D02*
X118341500Y-77548716D01*
X118341500Y-77548716D02*
X118317690Y-77477287D01*
X118317690Y-77477287D02*
X118317690Y-77429668D01*
X118317690Y-77429668D02*
X118341500Y-77358240D01*
X118341500Y-77358240D02*
X118389119Y-77310621D01*
X118389119Y-77310621D02*
X118436738Y-77286811D01*
X118436738Y-77286811D02*
X118531976Y-77263002D01*
X118531976Y-77263002D02*
X118603404Y-77263002D01*
X118603404Y-77263002D02*
X118698642Y-77286811D01*
X118698642Y-77286811D02*
X118746261Y-77310621D01*
X118746261Y-77310621D02*
X118793880Y-77358240D01*
X118793880Y-77358240D02*
X118817690Y-77429668D01*
X118817690Y-77429668D02*
X118817690Y-77477287D01*
X118817690Y-77477287D02*
X118793880Y-77548716D01*
X118793880Y-77548716D02*
X118770071Y-77572525D01*
X118317690Y-77786811D02*
X118817690Y-77786811D01*
X118317690Y-78072525D02*
X118603404Y-77858240D01*
X118817690Y-78072525D02*
X118531976Y-77786811D01*
X118793880Y-82142306D02*
X118817690Y-82094687D01*
X118817690Y-82094687D02*
X118817690Y-82023258D01*
X118817690Y-82023258D02*
X118793880Y-81951830D01*
X118793880Y-81951830D02*
X118746261Y-81904211D01*
X118746261Y-81904211D02*
X118698642Y-81880401D01*
X118698642Y-81880401D02*
X118603404Y-81856592D01*
X118603404Y-81856592D02*
X118531976Y-81856592D01*
X118531976Y-81856592D02*
X118436738Y-81880401D01*
X118436738Y-81880401D02*
X118389119Y-81904211D01*
X118389119Y-81904211D02*
X118341500Y-81951830D01*
X118341500Y-81951830D02*
X118317690Y-82023258D01*
X118317690Y-82023258D02*
X118317690Y-82070877D01*
X118317690Y-82070877D02*
X118341500Y-82142306D01*
X118341500Y-82142306D02*
X118365309Y-82166115D01*
X118365309Y-82166115D02*
X118531976Y-82166115D01*
X118531976Y-82166115D02*
X118531976Y-82070877D01*
X118317690Y-82380401D02*
X118817690Y-82380401D01*
X118817690Y-82380401D02*
X118317690Y-82666115D01*
X118317690Y-82666115D02*
X118817690Y-82666115D01*
X118317690Y-82904211D02*
X118817690Y-82904211D01*
X118817690Y-82904211D02*
X118817690Y-83023259D01*
X118817690Y-83023259D02*
X118793880Y-83094687D01*
X118793880Y-83094687D02*
X118746261Y-83142306D01*
X118746261Y-83142306D02*
X118698642Y-83166116D01*
X118698642Y-83166116D02*
X118603404Y-83189925D01*
X118603404Y-83189925D02*
X118531976Y-83189925D01*
X118531976Y-83189925D02*
X118436738Y-83166116D01*
X118436738Y-83166116D02*
X118389119Y-83142306D01*
X118389119Y-83142306D02*
X118341500Y-83094687D01*
X118341500Y-83094687D02*
X118317690Y-83023259D01*
X118317690Y-83023259D02*
X118317690Y-82904211D01*
X112932309Y-75475093D02*
X112432309Y-75475093D01*
X112932309Y-74951284D02*
X112694214Y-75117950D01*
X112932309Y-75236998D02*
X112432309Y-75236998D01*
X112432309Y-75236998D02*
X112432309Y-75046522D01*
X112432309Y-75046522D02*
X112456119Y-74998903D01*
X112456119Y-74998903D02*
X112479928Y-74975093D01*
X112479928Y-74975093D02*
X112527547Y-74951284D01*
X112527547Y-74951284D02*
X112598976Y-74951284D01*
X112598976Y-74951284D02*
X112646595Y-74975093D01*
X112646595Y-74975093D02*
X112670404Y-74998903D01*
X112670404Y-74998903D02*
X112694214Y-75046522D01*
X112694214Y-75046522D02*
X112694214Y-75236998D01*
X112979928Y-74403665D02*
X112956119Y-74451284D01*
X112956119Y-74451284D02*
X112908500Y-74498903D01*
X112908500Y-74498903D02*
X112837071Y-74570331D01*
X112837071Y-74570331D02*
X112813261Y-74617950D01*
X112813261Y-74617950D02*
X112813261Y-74665569D01*
X112932309Y-74641760D02*
X112908500Y-74689379D01*
X112908500Y-74689379D02*
X112860880Y-74736998D01*
X112860880Y-74736998D02*
X112765642Y-74760807D01*
X112765642Y-74760807D02*
X112598976Y-74760807D01*
X112598976Y-74760807D02*
X112503738Y-74736998D01*
X112503738Y-74736998D02*
X112456119Y-74689379D01*
X112456119Y-74689379D02*
X112432309Y-74641760D01*
X112432309Y-74641760D02*
X112432309Y-74546522D01*
X112432309Y-74546522D02*
X112456119Y-74498903D01*
X112456119Y-74498903D02*
X112503738Y-74451284D01*
X112503738Y-74451284D02*
X112598976Y-74427474D01*
X112598976Y-74427474D02*
X112765642Y-74427474D01*
X112765642Y-74427474D02*
X112860880Y-74451284D01*
X112860880Y-74451284D02*
X112908500Y-74498903D01*
X112908500Y-74498903D02*
X112932309Y-74546522D01*
X112932309Y-74546522D02*
X112932309Y-74641760D01*
X118317690Y-74227287D02*
X118817690Y-74227287D01*
X118817690Y-74227287D02*
X118460547Y-74393954D01*
X118460547Y-74393954D02*
X118817690Y-74560620D01*
X118817690Y-74560620D02*
X118317690Y-74560620D01*
X118317690Y-74798716D02*
X118817690Y-74798716D01*
X118341500Y-75013002D02*
X118317690Y-75084430D01*
X118317690Y-75084430D02*
X118317690Y-75203478D01*
X118317690Y-75203478D02*
X118341500Y-75251097D01*
X118341500Y-75251097D02*
X118365309Y-75274906D01*
X118365309Y-75274906D02*
X118412928Y-75298716D01*
X118412928Y-75298716D02*
X118460547Y-75298716D01*
X118460547Y-75298716D02*
X118508166Y-75274906D01*
X118508166Y-75274906D02*
X118531976Y-75251097D01*
X118531976Y-75251097D02*
X118555785Y-75203478D01*
X118555785Y-75203478D02*
X118579595Y-75108240D01*
X118579595Y-75108240D02*
X118603404Y-75060621D01*
X118603404Y-75060621D02*
X118627214Y-75036811D01*
X118627214Y-75036811D02*
X118674833Y-75013002D01*
X118674833Y-75013002D02*
X118722452Y-75013002D01*
X118722452Y-75013002D02*
X118770071Y-75036811D01*
X118770071Y-75036811D02*
X118793880Y-75060621D01*
X118793880Y-75060621D02*
X118817690Y-75108240D01*
X118817690Y-75108240D02*
X118817690Y-75227287D01*
X118817690Y-75227287D02*
X118793880Y-75298716D01*
X118817690Y-75608239D02*
X118817690Y-75703477D01*
X118817690Y-75703477D02*
X118793880Y-75751096D01*
X118793880Y-75751096D02*
X118746261Y-75798715D01*
X118746261Y-75798715D02*
X118651023Y-75822525D01*
X118651023Y-75822525D02*
X118484357Y-75822525D01*
X118484357Y-75822525D02*
X118389119Y-75798715D01*
X118389119Y-75798715D02*
X118341500Y-75751096D01*
X118341500Y-75751096D02*
X118317690Y-75703477D01*
X118317690Y-75703477D02*
X118317690Y-75608239D01*
X118317690Y-75608239D02*
X118341500Y-75560620D01*
X118341500Y-75560620D02*
X118389119Y-75513001D01*
X118389119Y-75513001D02*
X118484357Y-75489192D01*
X118484357Y-75489192D02*
X118651023Y-75489192D01*
X118651023Y-75489192D02*
X118746261Y-75513001D01*
X118746261Y-75513001D02*
X118793880Y-75560620D01*
X118793880Y-75560620D02*
X118817690Y-75608239D01*
X112932309Y-78522712D02*
X112432309Y-78522712D01*
X112432309Y-78522712D02*
X112789452Y-78356045D01*
X112789452Y-78356045D02*
X112432309Y-78189379D01*
X112432309Y-78189379D02*
X112932309Y-78189379D01*
X112432309Y-77856045D02*
X112432309Y-77760807D01*
X112432309Y-77760807D02*
X112456119Y-77713188D01*
X112456119Y-77713188D02*
X112503738Y-77665569D01*
X112503738Y-77665569D02*
X112598976Y-77641759D01*
X112598976Y-77641759D02*
X112765642Y-77641759D01*
X112765642Y-77641759D02*
X112860880Y-77665569D01*
X112860880Y-77665569D02*
X112908500Y-77713188D01*
X112908500Y-77713188D02*
X112932309Y-77760807D01*
X112932309Y-77760807D02*
X112932309Y-77856045D01*
X112932309Y-77856045D02*
X112908500Y-77903664D01*
X112908500Y-77903664D02*
X112860880Y-77951283D01*
X112860880Y-77951283D02*
X112765642Y-77975092D01*
X112765642Y-77975092D02*
X112598976Y-77975092D01*
X112598976Y-77975092D02*
X112503738Y-77951283D01*
X112503738Y-77951283D02*
X112456119Y-77903664D01*
X112456119Y-77903664D02*
X112432309Y-77856045D01*
X112908500Y-77451282D02*
X112932309Y-77379854D01*
X112932309Y-77379854D02*
X112932309Y-77260806D01*
X112932309Y-77260806D02*
X112908500Y-77213187D01*
X112908500Y-77213187D02*
X112884690Y-77189378D01*
X112884690Y-77189378D02*
X112837071Y-77165568D01*
X112837071Y-77165568D02*
X112789452Y-77165568D01*
X112789452Y-77165568D02*
X112741833Y-77189378D01*
X112741833Y-77189378D02*
X112718023Y-77213187D01*
X112718023Y-77213187D02*
X112694214Y-77260806D01*
X112694214Y-77260806D02*
X112670404Y-77356044D01*
X112670404Y-77356044D02*
X112646595Y-77403663D01*
X112646595Y-77403663D02*
X112622785Y-77427473D01*
X112622785Y-77427473D02*
X112575166Y-77451282D01*
X112575166Y-77451282D02*
X112527547Y-77451282D01*
X112527547Y-77451282D02*
X112479928Y-77427473D01*
X112479928Y-77427473D02*
X112456119Y-77403663D01*
X112456119Y-77403663D02*
X112432309Y-77356044D01*
X112432309Y-77356044D02*
X112432309Y-77236997D01*
X112432309Y-77236997D02*
X112456119Y-77165568D01*
X112932309Y-76951283D02*
X112432309Y-76951283D01*
X112432309Y-83320329D02*
X112932309Y-83153663D01*
X112932309Y-83153663D02*
X112432309Y-82986996D01*
X112908500Y-82606044D02*
X112932309Y-82653663D01*
X112932309Y-82653663D02*
X112932309Y-82748901D01*
X112932309Y-82748901D02*
X112908500Y-82796520D01*
X112908500Y-82796520D02*
X112884690Y-82820330D01*
X112884690Y-82820330D02*
X112837071Y-82844139D01*
X112837071Y-82844139D02*
X112694214Y-82844139D01*
X112694214Y-82844139D02*
X112646595Y-82820330D01*
X112646595Y-82820330D02*
X112622785Y-82796520D01*
X112622785Y-82796520D02*
X112598976Y-82748901D01*
X112598976Y-82748901D02*
X112598976Y-82653663D01*
X112598976Y-82653663D02*
X112622785Y-82606044D01*
X112908500Y-82177473D02*
X112932309Y-82225092D01*
X112932309Y-82225092D02*
X112932309Y-82320330D01*
X112932309Y-82320330D02*
X112908500Y-82367949D01*
X112908500Y-82367949D02*
X112884690Y-82391759D01*
X112884690Y-82391759D02*
X112837071Y-82415568D01*
X112837071Y-82415568D02*
X112694214Y-82415568D01*
X112694214Y-82415568D02*
X112646595Y-82391759D01*
X112646595Y-82391759D02*
X112622785Y-82367949D01*
X112622785Y-82367949D02*
X112598976Y-82320330D01*
X112598976Y-82320330D02*
X112598976Y-82225092D01*
X112598976Y-82225092D02*
X112622785Y-82177473D01*
X118365309Y-80120144D02*
X118341500Y-80096335D01*
X118341500Y-80096335D02*
X118317690Y-80024906D01*
X118317690Y-80024906D02*
X118317690Y-79977287D01*
X118317690Y-79977287D02*
X118341500Y-79905859D01*
X118341500Y-79905859D02*
X118389119Y-79858240D01*
X118389119Y-79858240D02*
X118436738Y-79834430D01*
X118436738Y-79834430D02*
X118531976Y-79810621D01*
X118531976Y-79810621D02*
X118603404Y-79810621D01*
X118603404Y-79810621D02*
X118698642Y-79834430D01*
X118698642Y-79834430D02*
X118746261Y-79858240D01*
X118746261Y-79858240D02*
X118793880Y-79905859D01*
X118793880Y-79905859D02*
X118817690Y-79977287D01*
X118817690Y-79977287D02*
X118817690Y-80024906D01*
X118817690Y-80024906D02*
X118793880Y-80096335D01*
X118793880Y-80096335D02*
X118770071Y-80120144D01*
X118579595Y-80334430D02*
X118579595Y-80501097D01*
X118317690Y-80572525D02*
X118317690Y-80334430D01*
X118317690Y-80334430D02*
X118817690Y-80334430D01*
X118817690Y-80334430D02*
X118817690Y-80572525D01*
M02*
